<svg id="Layer_1" data-name="Layer 1" xmlns="http://www.w3.org/2000/svg" viewBox="0 0 1473.7 258.78"><defs><style>.cls-1{fill:#1c1c1c;}</style></defs><path class="cls-1" d="M251.33,20.2C148.6,97.6,119.31,174.3,67.48,174.3c-20.45,0-33.24-10.23-33.24-23.48,0-7.9,4.42-12.78,11.16-12.78,4.88,0,8.37,4.19,8.37,9.07,0,6.74-7,7.43-7,12.31,0,6.51,6.74,12.09,21.85,12.09,35.8,0,65.08-45.09,116.91-97.39,38.59-39,74.85-63.45,75.54-63.45a.85.85,0,0,1,.93.93c0,1.63-.93.46-18.36,22.31-33.93,42.54-73.21,113.89-73.21,126.68a2.29,2.29,0,0,0,2.32,2.09c7.9,0,65.31-81.35,115-127.6C309,15.32,315.25,10.67,316.41,10.67a.62.62,0,0,1,.7.7c0,1.16-3.72,4.18-13.25,18.82-35.1,53.93-68.33,110.18-68.33,135.51a6,6,0,0,0,5.81,5.81c8.13,0,20.91-11.16,27.66-18.13,12.78-13,12.55-14.18,13.24-14.18a1.31,1.31,0,0,1,1.4,1.17c0,1.16-5.11,7-11.86,13.94-12.55,13-22.31,20-32.54,20S223.9,168,223.9,155.24c0-36.72,60.2-107.85,82.52-132.48l-.47-.47C241.57,75.29,182.53,172.91,163,172.91c-5.58,0-7.44-4.89-7.44-9.3,0-35.33,58.57-105.52,95.76-142.94Z"/><path class="cls-1" d="M332,153.38a5.45,5.45,0,0,0,2.56.47c7.9,0,15.8-4.65,21.61-11.39,3-3.49,3.26-4,4-4,.93,0,1.16.46,1.16,1.16,0,.46-.47,1.39-5.81,7a32,32,0,0,1-23,10,9.31,9.31,0,0,1-3-.24c-7.21,8.14-16.74,16.51-29.76,16.51-9.29,0-14.41-8.14-14.41-20.69,0-8.37,1.17-10.69,1.17-12.09,0-.93-.24-1.39-.7-1.39-1.86,0-3.49,3.72-4.19,3.72a1.31,1.31,0,0,1-1.39-1.16c0-1.17,7.9-9.3,13.48-14.65,13.48-12.78,27.66-18.36,38.12-18.36,8.83,0,13.94,6.74,13.94,16C345.69,133.86,339,146.41,332,153.38Zm.47-42.3c-16.27,0-37.89,30.91-37.89,50.44,0,6.5,2.79,8.6,6,8.6,18.37,0,40-27.43,40-48.58C340.58,116,338.26,111.08,332.45,111.08Z"/><path class="cls-1" d="M362,172.91c4.42-8.6,37.19-51.14,37.19-58.34a3.29,3.29,0,0,0-3.49-3.49c-6.5,0-12.78,4.88-24.63,17.9-10.93,11.85-10.69,12.78-11.62,12.78-.7,0-1.17-.46-1.17-1.39,0-.7,5.81-7.21,8.84-10.7,11.15-13,20.45-21.38,29.51-21.38,6.05,0,8.6,4.42,8.6,11.39,0,9.3-9.53,22.55-14.64,29.29l.47.46c9.06-8.6,35.79-41.14,47.64-41.14,5.81,0,8.37,6,8.37,10.92,0,7.91-4.65,14.65-8.6,20-10.46,14.18-15.57,22.55-15.57,26.27,0,2.32,1.39,4.65,3.72,4.65,5.34,0,15.11-8.37,24.63-18.6,11.86-12.55,10.93-13.25,12.32-13.25.7,0,.93.7.93,1.17,0,1.16-11.62,13.94-14.64,17-10.23,10.23-18.36,16.51-23.71,16.51-7,0-10.22-6.51-10.22-14.88,0-18.59,25.1-37.89,25.1-44.16,0-1.63-1.16-2.79-3.26-2.79-11.15,0-53.22,49.51-60.19,60.43Z"/><path class="cls-1" d="M517,65.06l14.41-.93L516.29,87.37h27.19a1.31,1.31,0,0,1,1.17,1.4c0,.69-.24,1.39-1.17,1.39H514.66c-7.2,12.78-44.16,65.78-44.16,76.47,0,2.32,1.4,3.49,4.42,3.49,7,0,15.11-6.05,25.57-16.51,11.85-11.62,13.24-15.34,14.41-15.34.93,0,1.16.47,1.16,1.4,0,.7-7.44,9.3-12.55,14.18C489.33,168,481,172.91,474.45,172.91c-7.9-.24-10.92-6-10.92-11.39,0-13.25,7.9-24.64,21.61-44.16l-.46-.47c-4.42,5.35-7.9,9.06-14.18,16.27-2.09,2.32-8.37,10-9.06,10s-1.17-.23-1.17-.92c0-.93.93-1.86,10-12.09a426.52,426.52,0,0,0,31.84-40h-8.37c-.92,0-1.16-.7-1.16-1.39a1.68,1.68,0,0,1,.93-1.4h9.76Z"/><path class="cls-1" d="M525.82,150.13a42.62,42.62,0,0,0-.93,7.67c0,9.06,2.55,12.08,9.76,12.32,6.27.23,18.36-4.42,32.54-18.37,9.06-9.29,11.39-13.48,12.32-13.48.69,0,1.16.47,1.16,1.4s-9.07,11.62-16,17.9C553,168.26,543.94,172.67,533,172.91c-12.78.23-18.36-12.56-18.36-24.64a48.16,48.16,0,0,1,.7-6.74c0-.47-.24-.47-.24-.47-.23.24-.46.7-.69.7a2.37,2.37,0,0,1-1.17-1.39c0-.93,6.75-8.14,8.6-10,12.79-13,27.66-22.08,40.21-22.08,7,0,11.63,4.65,11.63,11.16C573.7,136.88,539.53,147.34,525.82,150.13Zm.93-2.79c15.34-1.86,40-15.11,40-31.84,0-3-1.62-4.42-4.65-4.42C549.76,111.08,530,134.32,526.75,147.34Z"/><path class="cls-1" d="M581.37,172.91c4.41-8.6,37.18-51.14,37.18-58.34a3.28,3.28,0,0,0-3.48-3.49c-6.51,0-12.79,4.88-24.64,17.9-10.92,11.85-10.69,12.78-11.62,12.78-.7,0-1.16-.46-1.16-1.39,0-.7,5.81-7.21,8.83-10.7,11.16-13,20.45-21.38,29.52-21.38,6,0,8.6,4.42,8.6,11.39,0,9.3-9.53,22.55-14.65,29.29l.47.46c9.06-8.6,35.79-41.14,47.65-41.14,5.81,0,8.36,6,8.36,10.92,0,7.91-4.64,14.65-8.6,20-10.45,14.18-15.57,22.55-15.57,26.27,0,2.32,1.4,4.65,3.72,4.65,5.35,0,15.11-8.37,24.64-18.6,11.85-12.55,10.92-13.25,12.32-13.25.69,0,.93.7.93,1.17,0,1.16-11.62,13.94-14.65,17-10.22,10.23-18.36,16.51-23.7,16.51-7,0-10.23-6.51-10.23-14.88,0-18.59,25.1-37.89,25.1-44.16,0-1.63-1.16-2.79-3.25-2.79-11.16,0-53.23,49.51-60.2,60.43Z"/><path class="cls-1" d="M693.62,150.13a43.54,43.54,0,0,0-.93,7.67c0,9.06,2.56,12.08,9.77,12.32,6.27.23,18.36-4.42,32.54-18.37,9.06-9.29,11.39-13.48,12.32-13.48.69,0,1.16.47,1.16,1.4s-9.07,11.62-16,17.9c-11.62,10.69-20.69,15.1-31.61,15.34-12.78.23-18.36-12.56-18.36-24.64a48.16,48.16,0,0,1,.7-6.74c0-.47-.24-.47-.24-.47-.23.24-.46.7-.69.7a2.37,2.37,0,0,1-1.17-1.39c0-.93,6.74-8.14,8.6-10,12.79-13,27.66-22.08,40.21-22.08,7,0,11.62,4.65,11.62,11.16C741.5,136.88,707.34,147.34,693.62,150.13Zm.93-2.79c15.34-1.86,40-15.11,40-31.84,0-3-1.63-4.42-4.65-4.42C717.56,111.08,697.81,134.32,694.55,147.34Z"/><path class="cls-1" d="M834,109.22l-39,64.61.47.47c13-5.35,27.66-19.06,37.65-30.91,3.72-4.42,3.95-5.12,4.88-5.12a1.07,1.07,0,0,1,.93,1.17c0,1.16-1.63,2.79-8.37,10.22-12.32,13.72-27.42,24.87-36.95,28.13-8.6,17.66-39.52,67.63-61.13,67.63-6.74,0-11.62-3.95-11.62-11.85,0-18.6,22.78-32.54,61.59-54.62,3.49-7.67,7.67-16.5,16.27-33.24l-.46-.46c-6.51,9.29-22.32,27.66-35.1,27.66-10.92,0-14.41-8.14-14.41-20.23,0-5.81,1.63-8.6,1.63-12.08,0-.47-.24-.7-.93-.7-1.4,0-1.86,1.63-2.56,1.63-.46,0-.93-.7-.93-1.4s.93-1.86,7.44-8.83c10.46-10.92,30.45-23,44.16-23,7.44,0,12.08,3.25,12.08,11.16a29.25,29.25,0,0,1-.92,8.13l.46.47a172,172,0,0,0,9.76-17.67ZM733.6,242.63c17.43,0,42.3-46,46.95-60-15.34,9.29-53.69,29.52-53.69,51.13C726.86,239.15,727.56,242.63,733.6,242.63Zm23.48-79.72c0,4,2.09,7.21,6,7.21,17.2,0,43.7-37.66,43.7-50.44,0-5.11-1.4-8.6-7-8.6C781.25,111.08,757.08,145.25,757.08,162.91Z"/><path class="cls-1" d="M840.52,172.91c23.47-37.89,35.79-52.3,35.79-58.58,0-1.86-1.63-3.25-3.95-3.25-3.26,0-8.83,2.56-18.13,12.09C840.05,137.81,838,141.76,837,141.76a1.09,1.09,0,0,1-1.16-1.16c0-1.16,7.9-9.53,13.71-16,10-10.69,17.2-16.27,23.71-16.27,5.81,0,9.06,5.35,9.06,10.92,0,9.3-10,25.11-14.64,31.38l.47.47C880.49,136.65,891.88,129,894,122.7c2.33-6.74,7.21-14.41,15.34-14.41,4,0,5.58,1.16,5.58,3.72,0,9.06-26,16-26,32.07a7.65,7.65,0,0,0,7.67,7.91A14.9,14.9,0,0,0,907,147.34c5.11-5.11,7-8.83,7.9-8.83a1.3,1.3,0,0,1,1.4,1.16c0,.7-3.72,4.88-5.81,7.44-4.65,5.34-9.76,7.2-14.18,7.2-5.11,0-10.23-3.49-10.23-9.06a19.4,19.4,0,0,1,4.65-13l-.46-.46c-12.09,11.15-23.25,24.63-35.1,39.74Z"/><path class="cls-1" d="M955.1,108.29c-27.89,46-32.31,52.06-32.31,57,0,3.95,2.33,4.88,4.42,4.88,7.44,0,18.13-9.3,25.8-17.2,6-6,13.71-15.34,14.18-15.34.69,0,1.39.23,1.39,1.16,0,.7-4.41,6-14.18,16.27-11.39,11.85-20.91,17.9-27.42,17.9-7.21,0-11.16-5.12-11.16-12.09,0-15.57,14.18-31.38,22.08-43.23l-.46-.47c-2.79,2.79-8.6,8.83-19.76,21.39-2.32,2.79-2.56,3-3.25,3s-.93-.7-.93-1.4c0-.46.93-1.39,7-8.36s16.5-17.67,20-22.55Zm16.27-45.56c3.26,0,5.35,2.56,5.35,6.05,0,4-3,8.83-8.14,8.83-3.25,0-5.34-2.56-5.34-6C963.24,67.62,966.26,62.73,971.37,62.73Z"/><path class="cls-1" d="M968.58,172.91c4.41-8.6,37.19-51.14,37.19-58.34a3.29,3.29,0,0,0-3.49-3.49c-6.51,0-12.78,4.88-24.64,17.9C966.72,140.83,967,141.76,966,141.76c-.7,0-1.16-.46-1.16-1.39,0-.7,5.81-7.21,8.83-10.7,11.16-13,20.45-21.38,29.52-21.38,6,0,8.6,4.42,8.6,11.39,0,9.3-9.53,22.55-14.64,29.29l.46.46c9.07-8.6,35.8-41.14,47.65-41.14,5.81,0,8.37,6,8.37,10.92,0,7.91-4.65,14.65-8.6,20-10.46,14.18-15.58,22.55-15.58,26.27,0,2.32,1.4,4.65,3.72,4.65,5.35,0,15.11-8.37,24.64-18.6,11.85-12.55,10.92-13.25,12.32-13.25.7,0,.93.7.93,1.17,0,1.16-11.62,13.94-14.64,17-10.23,10.23-18.37,16.51-23.71,16.51-7,0-10.23-6.51-10.23-14.88,0-18.59,25.1-37.89,25.1-44.16,0-1.63-1.16-2.79-3.25-2.79-11.16,0-53.23,49.51-60.2,60.43Z"/><path class="cls-1" d="M1129,145.94a8.28,8.28,0,0,1,8.36,8.14c0,4.65-4.18,7-4.18,9.3,0,4.41,5.35,8.13,14.64,8.13,17,0,33.24-9.76,46.72-27,13-16.5,11.85-20.45,25.33-44.86-17.19,0-27.65-13-27.65-26,0-20.46,20-40.91,47.88-50.44,31.14-10.69,61.36-12.55,66.24-12.55.93,0,1.86.23,1.86,1.39,0,.93-.23.93-2.79,1.4C1270,21.59,1251,67.38,1237.49,96c20-4.18,28.59-19.29,31.14-19.29.93,0,1.17.23,1.17.93,0,1.63-14.18,18.13-34.4,22.08-18.13,36-51.14,74.61-88.09,74.61-16,0-28.13-8.37-28.13-17.66C1119.18,149.9,1122.44,145.94,1129,145.94Zm72.51-68.33c0,9.06,6,18.13,19.76,18.36,15.57-30.91,46.25-69.73,75.54-81.35v-.23C1231.68,20.43,1201.46,47.39,1201.46,77.61Z"/><path class="cls-1" d="M1246.09,172.91c4.41-8.6,37.19-51.14,37.19-58.34a3.29,3.29,0,0,0-3.49-3.49c-6.51,0-12.78,4.88-24.64,17.9-10.92,11.85-10.69,12.78-11.62,12.78-.7,0-1.16-.46-1.16-1.39,0-.7,5.81-7.21,8.83-10.7,11.16-13,20.45-21.38,29.52-21.38,6,0,8.6,4.42,8.6,11.39,0,9.3-9.53,22.55-14.64,29.29l.46.46c9.07-8.6,35.8-41.14,47.65-41.14,5.81,0,8.37,6,8.37,10.92,0,7.91-4.65,14.65-8.6,20-10.46,14.18-15.58,22.55-15.58,26.27,0,2.32,1.4,4.65,3.72,4.65,5.35,0,15.11-8.37,24.64-18.6,11.85-12.55,10.92-13.25,12.32-13.25.7,0,.93.7.93,1.17,0,1.16-11.62,13.94-14.64,17-10.23,10.23-18.37,16.51-23.71,16.51-7,0-10.23-6.51-10.23-14.88,0-18.59,25.1-37.89,25.1-44.16,0-1.63-1.16-2.79-3.25-2.79-11.16,0-53.23,49.51-60.2,60.43Z"/><path class="cls-1" d="M1349.28,172.91c4.42-8.6,37.19-51.14,37.19-58.34a3.29,3.29,0,0,0-3.49-3.49c-6.5,0-12.78,4.88-24.63,17.9-10.93,11.85-10.7,12.78-11.62,12.78-.7,0-1.17-.46-1.17-1.39,0-.7,5.81-7.21,8.83-10.7,11.16-13,20.46-21.38,29.52-21.38,6,0,8.6,4.42,8.6,11.39,0,9.3-9.53,22.55-14.64,29.29l.47.46c9.06-8.6,35.79-41.14,47.64-41.14,5.81,0,8.37,6,8.37,10.92,0,7.91-4.65,14.65-8.6,20-10.46,14.18-15.57,22.55-15.57,26.27,0,2.32,1.39,4.65,3.72,4.65,5.34,0,15.1-8.37,24.63-18.6,11.86-12.55,10.93-13.25,12.32-13.25.7,0,.93.7.93,1.17,0,1.16-11.62,13.94-14.64,17-10.23,10.23-18.36,16.51-23.71,16.51-7,0-10.23-6.51-10.23-14.88,0-18.59,25.11-37.89,25.11-44.16,0-1.63-1.16-2.79-3.26-2.79-11.15,0-53.22,49.51-60.2,60.43Z"/></svg>